<?xml version="1.0" encoding="UTF-8"?>
<svg xmlns="http://www.w3.org/2000/svg" width="219" height="69" viewBox="0 0 219 69" fill="none">
  <path d="M181.99 10.7128C175.197 9.6109 168.402 8.50881 161.591 7.4857C169.254 9.33589 176.934 11.6066 184.176 14.4079C195.924 18.9523 206.555 24.9056 214.094 32.7548L214.104 32.7654L214.114 32.7766C215.336 34.2089 216.632 35.7529 217.319 37.4795L217.321 37.4863L217.324 37.4932C218.292 40.1537 217.901 43.0209 216.435 45.4656C214.288 49.0507 210.312 52.0213 205.338 54.4957C200.354 56.9749 194.311 58.9834 187.955 60.6146C175.243 63.8773 161.211 65.6477 151.752 66.6347L151.738 66.504L151.741 66.636C145.437 67.1243 139.108 67.5116 132.788 67.8865L132.777 67.8871L132.767 67.8873C130.499 67.9289 128.229 67.9761 125.958 68.0234C122.357 68.0983 118.755 68.1732 115.154 68.2258L115.154 68.226L115.142 68.2259C104.913 68.1305 94.6813 67.9621 84.4518 67.3992C79.7863 67.224 75.1293 66.8239 70.4866 66.425C68.2593 66.2336 66.0354 66.0425 63.8153 65.8767L63.8003 65.8756L63.7854 65.8736C61.838 65.6095 59.8818 65.3611 57.9227 65.1123C53.4217 64.5407 48.9059 63.9672 44.4479 63.1983L44.4414 63.1971C32.2475 60.9276 18.9986 58.4476 9.4996 51.7081C2.73962 46.9186 -0.406296 39.5109 1.71686 32.7746C3.14162 28.2043 6.89288 24.3279 11.3269 21.2407C20.4801 14.8121 32.2285 10.8877 44.0653 7.93645C47.537 6.94538 51.1255 6.17946 54.6903 5.4186C55.5688 5.23109 56.4458 5.04389 57.3194 4.85371L57.3322 4.85091L57.3452 4.84879L68.8625 2.96998L68.8625 2.96979L68.8762 2.96794C93.5695 -0.360399 119.037 -0.0482809 143.813 3.88602C156.32 5.34276 168.702 7.41673 181.061 9.48674C185.984 10.3113 190.903 11.1352 195.825 11.9193L195.669 12.907C191.107 12.1916 186.548 11.4523 181.99 10.7128ZM122.312 3.338C120.717 3.25962 119.119 3.18107 117.516 3.08275L107.844 2.91414C107.843 2.91413 107.842 2.91413 107.842 2.91412C105.087 2.88789 102.34 2.95351 99.5825 3.01938C97.9669 3.05798 96.3476 3.09667 94.7208 3.11701C93.5382 3.18519 92.3562 3.24944 91.1752 3.31363C86.4413 3.57095 81.7232 3.82741 77.0432 4.33218L77.0369 4.33278C57.8296 6.1589 38.419 9.46708 22.1356 17.1623C15.3774 20.4649 8.9378 24.5525 5.61362 29.9882C2.56959 35.0294 3.17482 41.2491 7.18394 46.1101C10.6317 50.2646 16.4147 53.2286 22.5082 55.1958C34.5802 59.0004 47.5702 60.6413 60.4646 62.1627L60.4685 62.1632C64.6662 62.6916 68.885 62.9984 73.1189 63.3064C75.4621 63.4768 77.81 63.6475 80.1613 63.8564C82.5663 63.9493 84.9667 64.0614 87.3647 64.1734C92.8518 64.4297 98.326 64.6854 103.812 64.7088L103.817 64.7089C107.547 64.767 111.278 64.8226 115.008 64.8755C117.785 64.8299 120.566 64.7811 123.347 64.7324C126.412 64.6786 129.476 64.6249 132.537 64.5754C134.929 64.4101 137.319 64.2724 139.706 64.1349C144.476 63.8601 149.233 63.5861 153.959 63.0943L153.994 63.0906L153.995 63.0906C162.508 62.1447 173.951 60.6457 184.645 58.1478C195.381 55.6401 205.259 52.1472 210.697 47.2701C213.589 44.6248 215.234 41.473 214.33 38.1955C213.897 36.865 212.975 35.6338 211.979 34.3514C211.224 33.4324 210.388 32.5479 209.478 31.7038C206.483 28.9716 203.269 26.3701 199.645 24.1084C187.228 16.5545 172.227 11.6518 156.973 8.11872C148.355 6.23759 139.458 4.50559 130.497 3.83879L130.492 3.83834C127.768 3.60623 125.045 3.47237 122.312 3.338Z" fill="#C9B2FF" stroke="#C9B2FF"></path>
</svg>
